<?xml version="1.0" encoding="UTF-8"?><svg id="Calque_1" xmlns="http://www.w3.org/2000/svg" viewBox="0 0 595.28 841.89"><defs><style>.cls-1{fill:#cfb37f;}</style></defs><path class="cls-1" d="M264.86,306.61h49.81l8.89-9.01.18-.18v-11.48l-13.77-.05-.03-11.52v-.12h-11.76l-8.41,8.53-8.23-8.35-.18-.18h-11.76l-.03,11.64-13.64.05h-.12v11.48l8.88,9,.18.18ZM290.38,283.91l8.31-8.43h10.02l.03,11.52v.12s13.77.05,13.77.05v9.74l-8.34,8.46h-23.77v-21.46ZM257.03,287.18l13.64-.05h.12l.03-11.64h10.02l8.31,8.43v21.46h-23.77l-8.34-8.46v-9.74Z"/><path class="cls-1" d="M317.79,401.9v-65.84c0-3.82-5.45-8.49-11.81-8.49h-44.25v82.4h1.23v-43.24h8.42v-1.23h-8.42v-36.69h26.07v90.29l28.76-17.19ZM290.27,328.8h15.72c6.03,0,10.57,4.41,10.57,7.26v65.14l-26.29,15.72v-88.12Z"/><polygon class="cls-1" points="247.68 317.26 331.84 317.26 331.84 336.42 350.68 336.42 350.66 301.7 350.66 301.58 334.53 301.58 327.15 308.88 327.06 308.97 327.93 309.84 335.03 302.81 349.42 302.81 349.45 335.18 333.07 335.18 333.07 316.03 246.45 316.03 246.45 335.18 230.08 335.18 230.08 302.81 244.48 302.81 251.27 309.75 251.36 309.84 252.24 308.97 245 301.58 228.84 301.58 228.84 336.42 247.68 336.42 247.68 317.26"/><path class="cls-1" d="M230.08,390.28h16.37v38.1l43.01,24.65.31.18,43-24.64.31-.18v-38.1h16.37v28.06h1.23v-29.29h-8.8v-15.19l8.74-4.9.06-.04v-18.49l-4.69-4.53-.04-.03h-9.34l-4.73,4.52-.04.04v18.49l8.8,4.94v15.19h-8.8v19.15l-42.09,26.17-42.06-23.51v-21.82h-8.8v-15.19l8.74-4.9.06-.04v-18.49l-4.7-4.53-.04-.03h-9.34l-4.73,4.52-.04.04v18.49l8.8,4.94v15.19h-8.8v29.29h1.23v-28.06ZM333.07,368.19v-17.24l4.03-3.85h8.35l3.99,3.85v17.24l-8.19,4.59-8.19-4.59ZM247.68,412.28l42.03,23.49.06.03,42.06-26.15v18.02l-42.08,24.11-42.08-24.11v-15.39ZM230.08,368.19v-17.24l4.03-3.85h8.35l3.99,3.85v17.24l-8.19,4.59-8.19-4.59Z"/><path class="cls-1" d="M193.5,480.87c-.57-1.5-1.31-2.95-2.22-4.35-.91-1.4-2.02-2.64-3.32-3.71-1.3-1.08-2.83-1.94-4.57-2.59-1.74-.65-3.72-.98-5.94-.98h-17.6v.49c.72,0,1.29.11,1.71.34.42.23.75.54.98.95.23.41.37.9.44,1.46.07.57.1,1.22.1,1.93v30.35c0,.94-.05,1.77-.15,2.47-.1.7-.28,1.28-.54,1.74-.26.46-.65.8-1.17,1.03-.52.23-1.19.34-2,.34v.49h18.23c2.22,0,4.2-.33,5.94-.98,1.74-.65,3.27-1.53,4.57-2.64,1.3-1.11,2.41-2.38,3.32-3.81.91-1.43,1.65-2.95,2.22-4.55.57-1.6.98-3.2,1.22-4.81.24-1.61.37-3.15.37-4.62,0-1.24-.12-2.6-.37-4.08-.24-1.48-.65-2.97-1.22-4.47ZM188.17,497.2c-.44,2.51-1.17,4.73-2.2,6.67-1.03,1.94-2.39,3.5-4.11,4.67-1.71,1.17-3.82,1.76-6.33,1.76h-6.21v-40.52h5.52c2.54,0,4.69.55,6.45,1.64,1.76,1.09,3.2,2.55,4.32,4.37,1.13,1.83,1.94,3.92,2.44,6.28.5,2.36.76,4.81.76,7.36,0,2.67-.22,5.26-.66,7.77Z"/><polygon class="cls-1" points="313.26 532.74 312.17 532.74 312.17 546.63 319 546.63 319 545.6 313.26 545.6 313.26 532.74"/><polygon class="cls-1" points="283.3 533.77 286.95 533.77 286.95 546.63 288.04 546.63 288.04 533.77 291.7 533.77 291.7 532.74 283.3 532.74 283.3 533.77"/><rect class="cls-1" x="347.63" y="539.17" width="3.97" height=".97"/><path class="cls-1" d="M318.28,469.78c2.28,0,4.28.14,5.99.42,1.71.28,3.24.76,4.59,1.44,1.35.68,2.6,1.59,3.74,2.71,1.14,1.12,2.31,2.52,3.52,4.18l.39-.15-1.66-8.99v-.15h-30.82s-5.71,0-5.71,0c-2.93,0-5.65.52-8.14,1.56-2.49,1.04-4.65,2.48-6.48,4.3s-3.25,4.01-4.28,6.55c-1.03,2.54-1.54,5.3-1.54,8.26s.51,5.68,1.54,8.24c1.03,2.56,2.45,4.77,4.28,6.65,1.82,1.87,3.99,3.35,6.5,4.42,2.51,1.07,5.25,1.61,8.21,1.61h36.43l1.66-9.73-.34-.1c-1.24,1.83-2.51,3.34-3.81,4.55-1.3,1.2-2.71,2.16-4.23,2.86-1.52.7-3.18,1.19-4.98,1.47-1.81.28-2.14.41-4.35.41h-5.28v-22.87h2c2.22,0,2.34.12,3.74.37,1.4.25,2.55.64,3.45,1.17.9.54,1.64,1.23,2.22,2.08.59.85,1.17,1.87,1.76,3.08h.29v-13.88h-.29c-.39,1.27-.86,2.34-1.42,3.2-.55.86-1.31,1.55-2.27,2.05-.96.5-2.17.87-3.64,1.1-1.47.23-1.62.34-3.84.34h-2v-17.16h4.77ZM307.25,504.78c0,.95-.05,1.77-.15,2.47-.1.7-.28,1.28-.54,1.74s-.65.8-1.17,1.02c-.22.1-.48.16-.76.22l-6.22.07c-2.54,0-4.72-.58-6.52-1.73-1.81-1.16-3.28-2.68-4.42-4.57-1.14-1.89-1.98-4.06-2.52-6.5-.54-2.44-.81-4.95-.81-7.53s.25-5.17.76-7.6c.5-2.43,1.33-4.57,2.47-6.43,1.14-1.86,2.61-3.35,4.4-4.47,1.79-1.12,3.99-1.69,6.6-1.69h6.2c.46.05.87.13,1.17.29.42.23.75.54.98.95.23.41.37.89.44,1.46.06.57.1,1.21.1,1.93v30.35Z"/><polygon class="cls-1" points="297.61 546.63 305.07 546.63 305.07 545.6 298.7 545.6 298.7 539.53 304.67 539.53 304.67 538.5 298.7 538.5 298.7 533.77 305.07 533.77 305.07 532.74 297.61 532.74 297.61 546.63"/><path class="cls-1" d="M331.61,540.3c-.34-.32-.71-.58-1.12-.79s-.81-.39-1.19-.54c-.74-.26-1.36-.54-1.87-.84-.5-.3-.88-.63-1.13-1-.25-.37-.38-.81-.38-1.33,0-.62.22-1.14.65-1.56.44-.42,1.06-.62,1.87-.62.61,0,1.12.12,1.53.35.41.23.75.52,1.02.86s.48.7.62,1.05l.95-.54c-.19-.45-.46-.88-.81-1.31-.36-.42-.8-.77-1.34-1.05-.54-.28-1.18-.42-1.92-.42s-1.36.14-1.92.43c-.57.29-1.01.68-1.33,1.19-.32.51-.48,1.1-.48,1.76,0,.6.12,1.11.35,1.53.23.42.53.79.9,1.08.37.3.77.55,1.2.75s.84.38,1.24.53c.53.2,1.04.43,1.52.69s.88.59,1.18,1c.3.41.46.95.46,1.63,0,.77-.25,1.4-.76,1.89s-1.21.74-2.11.74c-.66,0-1.23-.14-1.71-.43-.47-.29-.88-.67-1.2-1.14-.32-.48-.6-1.01-.82-1.59l-.89.55c.22.65.54,1.25.95,1.81.41.55.92,1,1.53,1.33.61.33,1.32.5,2.12.5.57,0,1.1-.09,1.59-.27.49-.18.92-.44,1.28-.77s.65-.74.85-1.2c.21-.46.31-.98.31-1.55,0-.61-.11-1.13-.32-1.58-.21-.44-.49-.82-.82-1.14Z"/><path class="cls-1" d="M418.5,508.66c-.75-.8-1.56-1.78-2.44-2.96-.88-1.17-1.81-2.48-2.79-3.94-.98-1.45-1.94-3.01-2.88-4.67-.88-1.5-1.78-2.76-2.69-3.79-.91-1.03-1.82-1.84-2.71-2.44-.9-.6-1.78-1.03-2.66-1.3-.88-.26-1.73-.39-2.54-.39,1.11-.26,2.23-.49,3.37-.68,1.14-.2,2.26-.41,3.35-.64,1.09-.23,2.12-.52,3.08-.88.96-.36,1.8-.85,2.52-1.49.72-.63,1.29-1.43,1.71-2.39.42-.96.63-2.18.63-3.64,0-1.99-.36-3.64-1.08-4.96-.72-1.32-1.73-2.37-3.05-3.15-1.32-.78-2.89-1.33-4.72-1.64s-3.83-.46-6.01-.46h-18.38v.49c.81,0,1.48.11,2,.34.52.23.91.57,1.17,1.03.26.46.44,1.04.54,1.74.1.7.15,1.52.15,2.47v30.35c0,.72-.03,1.36-.1,1.93-.07.57-.21,1.06-.44,1.47-.23.41-.55.73-.98.95-.42.23-.99.34-1.71.34v.49c1.47-.06,2.67-.11,3.62-.15.94-.03,1.82-.05,2.64-.05.91,0,1.84.02,2.79.05.94.03,2.17.08,3.67.15v-.49c-.65,0-1.19-.1-1.61-.29-.42-.2-.75-.48-.98-.86-.23-.37-.39-.81-.49-1.32-.1-.5-.15-1.07-.15-1.69v-8.21c.1-.65.26-1.38.49-2.18.23-.8.55-1.54.95-2.22.41-.68.9-1.25,1.49-1.71.58-.46,1.29-.68,2.1-.68.75,0,1.52.21,2.32.63.8.42,1.57,1.11,2.32,2.05.85,1.11,1.62,2.26,2.32,3.45.7,1.19,1.39,2.37,2.08,3.54,1.21,2.05,2.31,3.92,3.32,5.6,1.01,1.68,1.92,3.14,2.74,4.38.39-.03,1-.05,1.83-.05h2.64c.93,0,1.81,0,2.64.02s1.44.02,1.83.02v-.49c-.52-.33-1.16-.89-1.91-1.69ZM397.21,488.77c-1.22.6-2.36,1.41-3.42,2.42-1.06,1.01-1.88,2.44-2.47,4.3v-25.71h6.45c1.37,0,2.69.16,3.96.46,1.27.31,2.4.84,3.37,1.59.98.75,1.75,1.74,2.32,2.98.57,1.24.82,2.79.76,4.64-.06,1.76-.44,3.13-1.12,4.11-.68.98-1.56,1.75-2.61,2.32-1.06.57-2.22,1.04-3.5,1.42-1.27.38-2.52.86-3.74,1.47Z"/><path class="cls-1" d="M371.4,469.24v.49c.72,0,1.29.11,1.71.34s.75.54.98.95c.23.41.37.89.44,1.46.07.57.1,1.22.1,1.93v14.47c-.1.85-.33,1.57-.68,2.15-.36.59-.79,1.07-1.3,1.44-.51.38-1.07.65-1.69.83-.62.18-1.22.27-1.81.27-.85,0-1.67-.2-2.47-.61-.8-.41-1.5-1.08-2.1-2.03-.6-.95-1.07-2.19-1.39-3.74-.33-1.55-.44-3.46-.34-5.74.13-2.61,0-4.73-.39-6.38-.39-1.64-1.04-2.92-1.96-3.81-.91-.9-2.06-1.48-3.45-1.76-1.39-.28-2.99-.37-4.81-.27-.13.03-.26.05-.39.05h-.39c-1.17.07-2.18.12-3.03.17-.85.05-1.7.07-2.54.07s-1.74-.02-2.66-.07c-.93-.05-2.09-.12-3.5-.22v.49c.72,0,1.29.11,1.71.34.42.23.75.54.98.95.23.41.37.89.44,1.46.07.57.1,1.22.1,1.93v23.8c0,2.18.45,4.08,1.34,5.7.9,1.61,2.09,2.94,3.57,3.98,1.48,1.04,3.19,1.81,5.13,2.3,1.94.49,3.95.7,6.04.64.85-.03,1.84-.11,2.98-.22,1.14-.11,2.3-.34,3.49-.68,1.19-.34,2.36-.82,3.52-1.44,1.16-.62,2.19-1.43,3.1-2.42s1.65-2.21,2.2-3.64c.55-1.43.83-3.14.83-5.13v-22.88c0-.71.03-1.36.1-1.93.06-.57.21-1.06.44-1.46.23-.41.55-.73.98-.95.42-.23.99-.34,1.71-.34v-.49c-1.04.1-2.12.15-3.23.15-1.5,0-2.75-.05-3.76-.15ZM374.63,497.79c-.07,3.59-1.14,6.35-3.23,8.31-2.08,1.96-4.87,3.23-8.36,3.81-.39.07-.78.11-1.17.15-.39.03-.77.05-1.12.05-1.7,0-3.25-.3-4.67-.91-1.42-.6-2.63-1.43-3.64-2.47-1.01-1.04-1.8-2.29-2.37-3.74-.57-1.45-.86-3.04-.86-4.77v-23.95c0-1.37.17-2.45.51-3.25.34-.8,1.16-1.23,2.47-1.3,1.04-.03,2.05-.02,3.03.05.98.07,1.87.25,2.69.54.81.29,1.53.72,2.15,1.29.62.57,1.12,1.35,1.52,2.32.65,1.66.91,4.17.78,7.53-.07,1.47-.02,2.96.15,4.47.16,1.51.5,2.88,1.03,4.08.52,1.21,1.24,2.19,2.15,2.96.91.77,2.09,1.15,3.52,1.15,1.14-.03,2.21-.33,3.2-.88.99-.55,1.74-1.37,2.22-2.44v6.99Z"/><path class="cls-1" d="M276.22,534.6c-.62-.64-1.35-1.14-2.19-1.5-.84-.36-1.76-.54-2.75-.54s-1.91.18-2.75.54-1.57.86-2.19,1.5c-.62.64-1.11,1.4-1.45,2.26-.34.87-.52,1.81-.52,2.83s.17,1.96.52,2.83.83,1.62,1.45,2.26c.62.64,1.35,1.14,2.19,1.5s1.76.54,2.75.54,1.91-.18,2.75-.54c.84-.36,1.57-.86,2.19-1.5.62-.64,1.11-1.39,1.45-2.26s.52-1.81.52-2.83-.17-1.96-.52-2.83c-.34-.87-.83-1.62-1.45-2.26ZM276.28,542.78c-.49.91-1.17,1.63-2.04,2.15-.87.52-1.86.79-2.97.79s-2.1-.26-2.96-.79c-.87-.52-1.55-1.24-2.04-2.15s-.74-1.95-.74-3.1.25-2.2.74-3.11,1.18-1.62,2.04-2.14c.87-.52,1.86-.78,2.96-.78s2.1.26,2.97.78c.87.52,1.54,1.24,2.04,2.14.49.91.73,1.94.73,3.11s-.25,2.18-.73,3.1Z"/><rect class="cls-1" x="227.92" y="539.17" width="3.97" height=".97"/><path class="cls-1" d="M215.28,469.78c2.28,0,4.28.14,5.99.42,1.71.28,3.24.76,4.59,1.44,1.35.68,2.6,1.59,3.74,2.71,1.14,1.12,2.31,2.52,3.52,4.18l.39-.15-1.66-8.99v-.15h-32.5v.49c.72,0,1.29.11,1.71.34.42.23.75.54.98.95.23.41.37.89.44,1.46.06.57.1,1.21.1,1.93v30.35c0,.95-.05,1.77-.15,2.47-.1.7-.28,1.28-.54,1.74-.26.46-.65.8-1.17,1.02-.52.23-1.19.34-2,.34v.49h33.14l1.66-9.73-.34-.1c-1.24,1.83-2.51,3.34-3.81,4.55-1.3,1.2-2.71,2.16-4.23,2.86-1.52.7-3.18,1.19-4.98,1.47-1.81.28-3.82.41-6.04.41h-5.28v-22.87h2c2.21,0,4.02.12,5.43.37,1.4.25,2.55.64,3.45,1.17.9.54,1.64,1.23,2.22,2.08.59.85,1.17,1.87,1.76,3.08h.29v-13.88h-.29c-.39,1.27-.86,2.34-1.42,3.2-.55.86-1.31,1.55-2.27,2.05-.96.5-2.17.87-3.64,1.1-1.47.23-3.31.34-5.52.34h-2v-17.16h6.45Z"/><polygon class="cls-1" points="256.75 538.55 248.64 538.55 248.64 532.74 247.55 532.74 247.55 546.63 248.64 546.63 248.64 539.59 256.75 539.59 256.75 546.63 257.86 546.63 257.86 532.74 256.75 532.74 256.75 538.55"/><path class="cls-1" d="M257.5,510.89c3.06,0,5.89-.44,8.48-1.32,2.59-.88,5.06-2.27,7.41-4.15l-2.15-7.77-.49.1c-.29,1.73-.78,3.36-1.47,4.89-.68,1.53-1.55,2.87-2.59,4.03-1.04,1.16-2.27,2.08-3.69,2.76-1.42.69-3.01,1.03-4.76,1.03-2.48,0-4.65-.56-6.53-1.69s-3.45-2.62-4.72-4.5c-1.27-1.87-2.23-4.01-2.88-6.4-.65-2.39-.98-4.86-.98-7.4,0-2.67.29-5.27.86-7.8.57-2.52,1.47-4.75,2.69-6.67,1.22-1.92,2.79-3.47,4.69-4.64,1.91-1.17,4.18-1.76,6.82-1.76,1.66,0,3.13.28,4.4.85,1.27.57,2.38,1.36,3.32,2.37.95,1.01,1.74,2.21,2.39,3.59.65,1.39,1.19,2.88,1.61,4.47l.49.1,1.96-7.33c-2.22-1.56-4.56-2.7-7.04-3.42-2.48-.72-5.03-1.08-7.67-1.08-3.13,0-5.97.51-8.53,1.54-2.56,1.03-4.76,2.45-6.6,4.28-1.84,1.83-3.27,4.01-4.28,6.55-1.01,2.54-1.52,5.33-1.52,8.36,0,3.19.54,6.09,1.61,8.67,1.08,2.59,2.56,4.8,4.45,6.62,1.89,1.83,4.09,3.23,6.6,4.23,2.51.99,5.21,1.49,8.11,1.49Z"/><polygon class="cls-1" points="268.1 530.84 268.76 531.37 271.28 529.17 273.8 531.37 274.45 530.84 271.28 528.06 268.1 530.84"/></svg>